<?xml version="1.0"?>
<svg xmlns="http://www.w3.org/2000/svg" xmlns:xlink="http://www.w3.org/1999/xlink" version="1.1" viewBox="0 0 252 252" width="48px" height="48px"><g fill="none" fill-rule="nonzero" stroke="none" stroke-width="1" stroke-linecap="butt" stroke-linejoin="miter" stroke-miterlimit="10" stroke-dasharray="" stroke-dashoffset="0" font-family="none" font-weight="none" font-size="none" text-anchor="none" style="mix-blend-mode: normal"><path d="M0,252v-252h252v252z" fill="none"/><g fill="#ffffff"><g id="surface1"><path d="M221.5459,116.03321l-85.5791,-85.57911c-2.625,-2.625 -6.2959,-4.2041 -9.9668,-4.2041c-3.6709,0 -7.34179,1.5791 -9.96679,4.2041l-18.375,18.375l21.51269,21.5127c2.11231,-1.0459 4.2041,-1.55859 6.8291,-1.55859c8.9209,0 15.75,6.80859 15.75,15.75c0,2.625 -0.5332,4.71679 -1.5791,6.80859l21,21c2.11231,-1.0459 4.2041,-1.55859 6.8291,-1.55859c8.9209,0 15.75,6.80859 15.75,15.75c0,8.92089 -6.8291,15.75 -15.75,15.75c-8.9209,0 -15.75,-6.82911 -15.75,-15.75c0,-2.625 0.53321,-4.73731 1.5791,-6.82911l-21,-21c-0.5332,0 -1.04589,0.5127 -1.5791,0.5127v54.6123c6.2959,2.0918 10.5,7.875 10.5,14.70411c0,8.92089 -6.8291,15.75 -15.75,15.75c-8.9209,0 -15.75,-6.82911 -15.75,-15.75c0,-6.82911 4.2041,-12.61231 10.5,-14.70411v-55.125c-6.2959,-2.1123 -10.5,-7.875 -10.5,-14.7041c0,-2.625 0.53321,-4.71679 1.5791,-6.8291l-21.5332,-21.51269l-59.8418,60.375c-2.625,2.625 -4.2041,6.29589 -4.2041,9.96679c0,3.6709 1.5791,7.3418 4.2041,9.9668l85.57911,85.5791c2.625,2.625 6.29589,4.2041 9.96679,4.2041c3.6709,0 7.3418,-1.5791 9.9668,-4.2041l85.5791,-85.5791c2.625,-2.625 4.2041,-6.2959 4.2041,-9.9668c0,-3.6709 -1.5791,-7.34179 -4.2041,-9.96679z"/></g></g></g></svg>
