<?xml version="1.0"?>
<svg xmlns="http://www.w3.org/2000/svg" xmlns:xlink="http://www.w3.org/1999/xlink" version="1.1" viewBox="0 0 252 252" width="96px" height="96px"><g fill="none" fill-rule="nonzero" stroke="none" stroke-width="1" stroke-linecap="butt" stroke-linejoin="miter" stroke-miterlimit="10" stroke-dasharray="" stroke-dashoffset="0" font-family="none" font-weight="none" font-size="none" text-anchor="none" style="mix-blend-mode: normal"><path d="M0,252v-252h252v252z" fill="none"/><g><g id="surface1"><path d="M220.5,194.25c0,14.49902 -11.75098,26.25 -26.25,26.25h-136.5c-14.49902,0 -26.25,-11.75098 -26.25,-26.25v-136.5c0,-14.49902 11.75098,-26.25 26.25,-26.25h136.5c14.49902,0 26.25,11.75098 26.25,26.25z" fill="#ffffff"/><path d="M63,99.75h26.25v89.25h-26.25z" fill="#ee5050"/><path d="M76.04297,89.25h-0.14356c-7.83398,0 -12.89941,-5.84473 -12.89941,-13.125c0,-7.46484 5.22949,-13.125 13.20703,-13.125c7.97754,0 12.89941,5.66016 13.04297,13.125c0,7.28027 -5.06543,13.125 -13.20703,13.125z" fill="#ee5050"/><path d="M189,189h-26.25v-47.76269c0,-11.5459 -6.43945,-19.4209 -16.75488,-19.4209c-7.875,0 -12.14062,5.31152 -14.21191,10.43848c-0.75879,1.84571 -0.53321,6.93164 -0.53321,9.49512v47.25h-26.25v-89.25h26.25v13.74024c3.79394,-5.86524 9.72071,-13.74024 24.87598,-13.74024c18.78516,0 32.87402,11.8125 32.87402,38.18555z" fill="#ee5050"/></g></g></g></svg>
